<?xml version="1.0" encoding="utf-8"?>
<!-- Generator: Adobe Illustrator 27.4.0, SVG Export Plug-In . SVG Version: 6.00 Build 0)  -->
<svg version="1.1" id="Layer_1" xmlns="http://www.w3.org/2000/svg" xmlns:xlink="http://www.w3.org/1999/xlink" x="0px" y="0px"
	 viewBox="0 0 841.9 595.3" style="enable-background:new 0 0 841.9 595.3;" xml:space="preserve">
<style type="text/css">
	.st0{fill:#FFFFFF;}
</style>
<rect x="158.6" y="397.4" width="49.7" height="29.4"/>
<rect x="164" y="415.1" width="49.7" height="29.4"/>
<rect x="180.9" y="426.8" width="49.7" height="29.4"/>
<rect x="198.7" y="435.6" width="49.7" height="29.4"/>
<rect x="57.8" y="436.7" width="729.3" height="94.4"/>
<rect x="223.6" y="420.9" width="49.7" height="29.4"/>
<rect x="235.5" y="412.1" width="49.7" height="29.4"/>
<rect x="242" y="397.4" width="49.7" height="29.4"/>
<rect x="243.1" y="385.7" width="49.7" height="29.4"/>
<rect x="260.1" y="396.8" transform="matrix(0.9453 -0.3261 0.3261 0.9453 -115.9041 114.6209)" width="47.6" height="12.3"/>
<rect x="274.3" y="395.5" transform="matrix(0.9453 -0.3261 0.3261 0.9453 -113.8886 118.4191)" width="43.9" height="6.7"/>
<rect x="196.5" y="382.8" width="49.7" height="29.4"/>
<rect x="196.5" y="406.3" width="49.7" height="29.4"/>
<rect x="164" y="387.2" width="49.7" height="29.4"/>
<rect x="190.8" y="242.2" width="68.4" height="31.9"/>
<rect x="62.5" y="423.4" transform="matrix(0.8321 -0.5546 0.5546 0.8321 -229.5561 122.8631)" width="51.3" height="34.4"/>
<rect x="675.1" y="82.1" transform="matrix(0.829 -0.5592 0.5592 0.829 64.3046 408.841)" width="51.3" height="34.4"/>
<rect x="693.1" y="81.3" transform="matrix(0.829 -0.5592 0.5592 0.829 67.81 418.7731)" width="51.3" height="34.4"/>
<rect x="700.6" y="101.9" transform="matrix(0.829 -0.5592 0.5592 0.829 57.5498 426.4643)" width="51.3" height="34.4"/>
<rect x="287.6" y="-83.6" transform="matrix(2.138163e-02 -0.9998 0.9998 2.138163e-02 184.0125 387.6836)" width="4.8" height="366.9"/>
<rect x="383.3" y="-84.4" transform="matrix(2.134545e-02 -0.9998 0.9998 2.134545e-02 284.0888 488.2805)" width="16.3" height="366.9"/>
<rect x="616.6" y="-80.8" transform="matrix(2.139872e-02 -0.9998 0.9998 2.139872e-02 502.5689 718.7233)" width="3.6" height="366.9"/>
<rect x="70" y="429.8" transform="matrix(0.8321 -0.5546 0.5546 0.8321 -231.8198 128.0953)" width="51.3" height="34.4"/>
<rect x="77" y="432.1" transform="matrix(0.8321 -0.5546 0.5546 0.8321 -231.9376 132.3282)" width="51.3" height="34.4"/>
<rect x="83.9" y="436.7" transform="matrix(0.8321 -0.5546 0.5546 0.8321 -233.3371 136.949)" width="51.3" height="34.4"/>
<rect x="97.2" y="440.8" transform="matrix(0.8321 -0.5546 0.5546 0.8321 -233.3493 144.9973)" width="51.3" height="34.4"/>
<rect x="107.6" y="443.7" transform="matrix(0.8321 -0.5546 0.5546 0.8321 -233.2057 151.2497)" width="51.3" height="34.4"/>
<rect x="714.7" y="423.6" transform="matrix(-0.3103 0.9506 -0.9506 -0.3103 1409.2543 -124.0313)" width="69.8" height="51.2"/>
<rect x="700.2" y="422.8" transform="matrix(-0.3103 0.9506 -0.9506 -0.3103 1389.4064 -111.3263)" width="69.8" height="51.2"/>
<rect x="690.1" y="425.9" transform="matrix(-0.3103 0.9506 -0.9506 -0.3103 1379.2051 -97.6608)" width="69.8" height="51.2"/>
<rect x="677.9" y="426.5" transform="matrix(-0.3103 0.9506 -0.9506 -0.3103 1363.7258 -85.2549)" width="69.8" height="51.2"/>
<rect x="659" y="432.9" transform="matrix(-0.3103 0.9506 -0.9506 -0.3103 1345.053 -58.8529)" width="69.8" height="51.2"/>
<rect x="644.5" y="438.2" transform="matrix(-0.3103 0.9506 -0.9506 -0.3103 1331.0704 -38.0399)" width="69.8" height="51.2"/>
<rect x="172.5" y="286.6" width="101.8" height="73.3"/>
<rect x="225.3" y="173" width="49.7" height="24.8"/>
<rect x="266.6" y="172.3" transform="matrix(0.7071 -0.7071 0.7071 0.7071 -48.994 251.3382)" class="st0" width="24.5" height="25"/>
<rect x="220.1" y="279.3" width="10.6" height="114.5"/>
<rect x="221.3" y="232.9" width="7" height="103.1"/>
<rect x="223.6" y="170.1" width="2.7" height="113.9"/>
<rect x="504.4" y="395.1" width="49.7" height="29.4"/>
<rect x="509.8" y="412.8" width="49.7" height="29.4"/>
<rect x="526.7" y="424.5" width="49.7" height="29.4"/>
<rect x="544.5" y="433.3" width="49.7" height="29.4"/>
<rect x="569.4" y="418.6" width="49.7" height="29.4"/>
<rect x="581.3" y="409.8" width="49.7" height="29.4"/>
<rect x="587.8" y="395.1" width="49.7" height="29.4"/>
<rect x="588.9" y="383.4" width="49.7" height="29.4"/>
<rect x="599.9" y="394.5" transform="matrix(0.9453 -0.3261 0.3261 0.9453 -96.5688 225.3249)" width="47.6" height="12.3"/>
<rect x="614.1" y="393.2" transform="matrix(0.9453 -0.3261 0.3261 0.9453 -94.5533 229.1231)" width="43.9" height="6.7"/>
<rect x="489.6" y="392.3" transform="matrix(-0.9604 -0.2788 0.2788 -0.9604 896.2011 924.4047)" width="48.5" height="12.3"/>
<rect x="478.7" y="391.6" transform="matrix(-0.9604 -0.2788 0.2788 -0.9604 872.1824 913.8657)" width="44.7" height="6.7"/>
<rect x="149.8" y="394.7" transform="matrix(-0.9604 -0.2788 0.2788 -0.9604 229.3942 834.2043)" width="48.5" height="12.3"/>
<rect x="138.9" y="393.9" transform="matrix(-0.9604 -0.2788 0.2788 -0.9604 205.3755 823.6653)" width="44.7" height="6.7"/>
<rect x="542.3" y="380.5" width="49.7" height="29.4"/>
<rect x="542.3" y="403.9" width="49.7" height="29.4"/>
<rect x="509.8" y="384.9" width="49.7" height="29.4"/>
<rect x="536.6" y="239.9" width="68.4" height="31.9"/>
<rect x="518.3" y="284.3" width="101.8" height="73.3"/>
<rect x="571.1" y="170.7" width="49.7" height="24.8"/>
<rect x="612.4" y="170" transform="matrix(0.7071 -0.7071 0.7071 0.7071 53.9219 495.1771)" class="st0" width="24.5" height="25"/>
<rect x="565.9" y="277" width="10.6" height="114.5"/>
<rect x="567.1" y="230.6" width="7" height="103.1"/>
<rect x="569.4" y="167.8" width="2.7" height="113.9"/>
<circle cx="399.4" cy="385.4" r="19.6"/>
<circle cx="353.7" cy="342.6" r="19.6"/>
<circle cx="406.3" cy="332.2" r="19.6"/>
<circle cx="429.7" cy="346.8" r="31.7"/>
<circle cx="339" cy="333.5" r="23.7"/>
<circle cx="377.3" cy="296.4" r="8.7"/>
<circle cx="358.7" cy="287.7" r="13.5"/>
<circle cx="436.9" cy="310.8" r="8.7"/>
<circle cx="382.5" cy="359.4" r="8.7"/>
<circle cx="340.9" cy="387.7" r="8.7"/>
<circle cx="330.5" cy="306.8" r="8.7"/>
<circle cx="425.3" cy="262.3" r="8.7"/>
<circle cx="376.8" cy="267.8" r="5.3"/>
<circle cx="401.1" cy="288.3" r="5.3"/>
<circle cx="324.9" cy="358.4" r="5.3"/>
<circle cx="464" cy="390.1" r="5.3"/>
<circle cx="360.4" cy="396.1" r="5.3"/>
<circle cx="442.7" cy="364.6" r="19.6"/>
</svg>
