<?xml version="1.0" encoding="utf-8"?>
<!-- Generator: Adobe Illustrator 27.4.0, SVG Export Plug-In . SVG Version: 6.00 Build 0)  -->
<svg version="1.1" id="Layer_1" xmlns="http://www.w3.org/2000/svg" xmlns:xlink="http://www.w3.org/1999/xlink" x="0px" y="0px"
	 viewBox="0 0 841.9 595.3" style="enable-background:new 0 0 841.9 595.3;" xml:space="preserve">
<style type="text/css">
	.st0{fill:#FFFFFF;}
</style>
<rect x="156.9" y="415.5" width="57.4" height="33.9"/>
<rect x="163.1" y="435.9" width="57.4" height="33.9"/>
<rect x="182.6" y="449.4" width="57.4" height="33.9"/>
<rect x="203.2" y="459.6" width="57.4" height="33.9"/>
<rect x="231.9" y="442.7" width="57.4" height="33.9"/>
<rect x="245.5" y="432.5" width="57.4" height="33.9"/>
<rect x="253" y="415.5" width="57.4" height="33.9"/>
<rect x="254.3" y="402" width="57.4" height="33.9"/>
<rect x="274" y="414.8" transform="matrix(0.9453 -0.3261 0.3261 0.9453 -121.1259 121.3747)" width="54.9" height="14.2"/>
<rect x="290.3" y="413.3" transform="matrix(0.9453 -0.3261 0.3261 0.9453 -118.8003 125.7573)" width="50.7" height="7.7"/>
<rect x="200.6" y="398.6" width="57.4" height="33.9"/>
<rect x="200.6" y="425.7" width="57.4" height="33.9"/>
<rect x="163.1" y="403.7" width="57.4" height="33.9"/>
<rect x="194" y="236.4" width="78.9" height="36.8"/>
<rect x="172.9" y="287.6" width="117.5" height="84.6"/>
<rect x="233.8" y="156.6" width="57.4" height="28.6"/>
<rect x="281.5" y="155.8" transform="matrix(0.7071 -0.7071 0.7071 0.7071 -33.7488 258.9111)" class="st0" width="28.3" height="28.8"/>
<rect x="227.8" y="279.2" width="12.2" height="132.1"/>
<rect x="229.2" y="225.7" width="8.1" height="118.9"/>
<rect x="231.9" y="153.2" width="3.1" height="131.5"/>
<rect x="555.9" y="412.9" width="57.4" height="33.9"/>
<rect x="562.1" y="433.2" width="57.4" height="33.9"/>
<rect x="581.6" y="446.8" width="57.4" height="33.9"/>
<rect x="602.2" y="456.9" width="57.4" height="33.9"/>
<rect x="630.9" y="440" width="57.4" height="33.9"/>
<rect x="644.5" y="429.8" width="57.4" height="33.9"/>
<rect x="652" y="412.9" width="57.4" height="33.9"/>
<rect x="653.3" y="399.3" width="57.4" height="33.9"/>
<rect x="666.1" y="412.2" transform="matrix(0.9453 -0.3261 0.3261 0.9453 -98.8157 249.1116)" width="54.9" height="14.2"/>
<rect x="682.4" y="410.6" transform="matrix(0.9453 -0.3261 0.3261 0.9453 -96.4901 253.4942)" width="50.7" height="7.7"/>
<rect x="538.8" y="409.7" transform="matrix(-0.9604 -0.2788 0.2788 -0.9604 994.8348 974.9494)" width="55.9" height="14.2"/>
<rect x="526.2" y="408.8" transform="matrix(-0.9604 -0.2788 0.2788 -0.9604 967.1206 962.7888)" width="51.6" height="7.7"/>
<rect x="146.7" y="412.3" transform="matrix(-0.9604 -0.2788 0.2788 -0.9604 225.4328 870.8707)" width="55.9" height="14.2"/>
<rect x="134.1" y="411.4" transform="matrix(-0.9604 -0.2788 0.2788 -0.9604 197.7185 858.7101)" width="51.6" height="7.7"/>
<rect x="599.6" y="395.9" width="57.4" height="33.9"/>
<rect x="599.6" y="423" width="57.4" height="33.9"/>
<rect x="562.1" y="401" width="57.4" height="33.9"/>
<rect x="593" y="233.8" width="78.9" height="36.8"/>
<rect x="571.9" y="285" width="117.5" height="84.6"/>
<rect x="632.8" y="154" width="57.4" height="28.6"/>
<rect x="680.5" y="153.1" transform="matrix(0.7071 -0.7071 0.7071 0.7071 85.0018 540.2671)" class="st0" width="28.3" height="28.8"/>
<rect x="626.8" y="276.6" width="12.2" height="132.1"/>
<rect x="628.2" y="223" width="8.1" height="118.9"/>
<rect x="630.9" y="150.5" width="3.1" height="131.5"/>
<circle cx="432" cy="401.6" r="22.7"/>
<circle cx="379.3" cy="352.3" r="22.7"/>
<circle cx="440" cy="340.3" r="22.7"/>
<circle cx="484.7" cy="377.6" r="22.7"/>
<circle cx="389.3" cy="306.3" r="22.7"/>
<circle cx="336.7" cy="257" r="22.7"/>
<circle cx="397.3" cy="245" r="22.7"/>
<circle cx="442" cy="282.3" r="22.7"/>
<circle cx="322.7" cy="421.3" r="22.7"/>
<circle cx="270" cy="372" r="22.7"/>
<circle cx="330.7" cy="360" r="22.7"/>
<circle cx="375.3" cy="397.3" r="22.7"/>
</svg>
