<?xml version="1.0" encoding="UTF-8"?>
<svg id="Layer_1" data-name="Layer 1" xmlns="http://www.w3.org/2000/svg" viewBox="0 0 841.89 595.28">
  <defs>
    <style>
      .cls-1 {
        fill: #fff;
      }

      .cls-2 {
        fill: #231f20;
      }
    </style>
  </defs>
  <rect class="cls-2" x="158.62" y="397.45" width="49.72" height="29.37"/>
  <rect class="cls-2" x="163.99" y="415.07" width="49.72" height="29.37"/>
  <rect class="cls-2" x="180.94" y="426.81" width="49.72" height="29.37"/>
  <rect class="cls-2" x="198.73" y="435.62" width="49.72" height="29.37"/>
  <rect class="cls-2" x="57.76" y="436.68" width="729.29" height="94.44"/>
  <rect class="cls-2" x="223.59" y="420.94" width="49.72" height="29.37"/>
  <rect class="cls-2" x="235.46" y="412.13" width="49.72" height="29.37"/>
  <rect class="cls-2" x="241.96" y="397.45" width="49.72" height="29.37"/>
  <rect class="cls-2" x="243.09" y="385.7" width="49.72" height="29.37"/>
  <rect class="cls-2" x="260.1" y="396.84" width="47.56" height="12.27" transform="translate(-115.9 114.62) rotate(-19.04)"/>
  <rect class="cls-2" x="274.27" y="395.51" width="43.9" height="6.69" transform="translate(-113.89 118.42) rotate(-19.04)"/>
  <rect class="cls-2" x="196.47" y="382.76" width="49.72" height="29.37"/>
  <rect class="cls-2" x="196.47" y="406.26" width="49.72" height="29.37"/>
  <rect class="cls-2" x="163.99" y="387.17" width="49.72" height="29.37"/>
  <rect class="cls-2" x="190.77" y="242.23" width="68.42" height="31.85"/>
  <rect class="cls-2" x="62.51" y="423.44" width="51.34" height="34.37" transform="translate(-229.56 122.86) rotate(-33.68)"/>
  <rect class="cls-2" x="675.11" y="82.07" width="51.34" height="34.37" transform="translate(64.3 408.84) rotate(-34)"/>
  <rect class="cls-2" x="693.11" y="81.3" width="51.34" height="34.37" transform="translate(67.81 418.77) rotate(-34)"/>
  <rect class="cls-2" x="700.56" y="101.93" width="51.34" height="34.37" transform="translate(57.55 426.46) rotate(-34)"/>
  <rect class="cls-2" x="287.63" y="-83.61" width="4.81" height="366.92" transform="translate(184.01 387.68) rotate(-88.77)"/>
  <rect class="cls-2" x="383.32" y="-84.43" width="16.27" height="366.92" transform="translate(284.09 488.28) rotate(-88.78)"/>
  <rect class="cls-2" x="616.62" y="-80.82" width="3.61" height="366.92" transform="translate(502.57 718.72) rotate(-88.77)"/>
  <rect class="cls-2" x="70.02" y="429.8" width="51.34" height="34.37" transform="translate(-231.82 128.1) rotate(-33.68)"/>
  <rect class="cls-2" x="76.95" y="432.11" width="51.34" height="34.37" transform="translate(-231.94 132.33) rotate(-33.68)"/>
  <rect class="cls-2" x="83.88" y="436.73" width="51.34" height="34.37" transform="translate(-233.34 136.95) rotate(-33.68)"/>
  <rect class="cls-2" x="97.17" y="440.77" width="51.34" height="34.37" transform="translate(-233.35 145) rotate(-33.68)"/>
  <rect class="cls-2" x="107.57" y="443.66" width="51.34" height="34.37" transform="translate(-233.21 151.25) rotate(-33.68)"/>
  <rect class="cls-2" x="714.74" y="423.61" width="69.76" height="51.19" transform="translate(1409.25 -124.03) rotate(108.08)"/>
  <rect class="cls-2" x="700.21" y="422.76" width="69.76" height="51.19" transform="translate(1389.41 -111.33) rotate(108.08)"/>
  <rect class="cls-2" x="690.15" y="425.89" width="69.76" height="51.19" transform="translate(1379.21 -97.66) rotate(108.08)"/>
  <rect class="cls-2" x="677.91" y="426.48" width="69.76" height="51.19" transform="translate(1363.73 -85.25) rotate(108.08)"/>
  <rect class="cls-2" x="658.99" y="432.91" width="69.76" height="51.19" transform="translate(1345.05 -58.85) rotate(108.08)"/>
  <rect class="cls-2" x="644.45" y="438.24" width="69.76" height="51.19" transform="translate(1331.07 -38.04) rotate(108.08)"/>
  <rect class="cls-2" x="172.54" y="286.58" width="101.84" height="73.32"/>
  <rect class="cls-2" x="225.29" y="173.05" width="49.72" height="24.76"/>
  <rect class="cls-1" x="266.62" y="172.31" width="24.54" height="25" transform="translate(-48.99 251.34) rotate(-45)"/>
  <rect class="cls-2" x="220.06" y="279.31" width="10.59" height="114.46"/>
  <rect class="cls-2" x="221.33" y="232.93" width="7.02" height="103.07"/>
  <rect class="cls-2" x="223.59" y="170.07" width="2.72" height="113.94"/>
  <rect class="cls-2" x="504.42" y="395.14" width="49.72" height="29.37"/>
  <rect class="cls-2" x="509.78" y="412.75" width="49.72" height="29.37"/>
  <rect class="cls-2" x="526.73" y="424.5" width="49.72" height="29.37"/>
  <rect class="cls-2" x="544.53" y="433.31" width="49.72" height="29.37"/>
  <rect class="cls-2" x="569.39" y="418.63" width="49.72" height="29.37"/>
  <rect class="cls-2" x="581.26" y="409.82" width="49.72" height="29.37"/>
  <rect class="cls-2" x="587.76" y="395.14" width="49.72" height="29.37"/>
  <rect class="cls-2" x="588.89" y="383.39" width="49.72" height="29.37"/>
  <rect class="cls-2" x="599.92" y="394.52" width="47.56" height="12.27" transform="translate(-96.57 225.32) rotate(-19.04)"/>
  <rect class="cls-2" x="614.08" y="393.2" width="43.9" height="6.69" transform="translate(-94.55 229.12) rotate(-19.04)"/>
  <rect class="cls-2" x="489.6" y="392.35" width="48.45" height="12.27" transform="translate(896.2 924.4) rotate(-163.81)"/>
  <rect class="cls-2" x="478.71" y="391.57" width="44.72" height="6.69" transform="translate(872.18 913.87) rotate(-163.81)"/>
  <rect class="cls-2" x="149.78" y="394.66" width="48.45" height="12.27" transform="translate(229.39 834.2) rotate(-163.81)"/>
  <rect class="cls-2" x="138.89" y="393.88" width="44.72" height="6.69" transform="translate(205.38 823.67) rotate(-163.81)"/>
  <rect class="cls-2" x="542.27" y="380.45" width="49.72" height="29.37"/>
  <rect class="cls-2" x="542.27" y="403.95" width="49.72" height="29.37"/>
  <rect class="cls-2" x="509.78" y="384.86" width="49.72" height="29.37"/>
  <rect class="cls-2" x="536.57" y="239.92" width="68.42" height="31.85"/>
  <rect class="cls-2" x="518.34" y="284.27" width="101.84" height="73.32"/>
  <rect class="cls-2" x="571.09" y="170.74" width="49.72" height="24.76"/>
  <rect class="cls-1" x="612.42" y="170" width="24.54" height="25" transform="translate(53.92 495.18) rotate(-45)"/>
  <rect class="cls-2" x="565.86" y="276.99" width="10.59" height="114.46"/>
  <rect class="cls-2" x="567.13" y="230.61" width="7.02" height="103.07"/>
  <rect class="cls-2" x="569.39" y="167.76" width="2.72" height="113.94"/>
  <circle class="cls-2" cx="399.35" cy="385.4" r="19.64"/>
  <circle class="cls-2" cx="353.71" cy="342.65" r="19.64"/>
  <circle class="cls-2" cx="406.29" cy="332.25" r="19.64"/>
  <circle class="cls-2" cx="429.69" cy="346.84" r="31.72"/>
  <circle class="cls-2" cx="339" cy="333.48" r="23.69"/>
  <circle class="cls-2" cx="377.35" cy="296.38" r="8.72"/>
  <circle class="cls-2" cx="358.65" cy="287.65" r="13.46"/>
  <circle class="cls-2" cx="436.86" cy="310.82" r="8.72"/>
  <circle class="cls-2" cx="382.55" cy="359.35" r="8.72"/>
  <circle class="cls-2" cx="340.95" cy="387.66" r="8.72"/>
  <circle class="cls-2" cx="330.55" cy="306.78" r="8.72"/>
  <circle class="cls-2" cx="425.3" cy="262.29" r="8.72"/>
  <circle class="cls-2" cx="376.81" cy="267.77" r="5.32"/>
  <circle class="cls-2" cx="401.09" cy="288.34" r="5.32"/>
  <circle class="cls-2" cx="324.88" cy="358.42" r="5.32"/>
  <circle class="cls-2" cx="463.99" cy="390.05" r="5.32"/>
  <circle class="cls-2" cx="360.41" cy="396.11" r="5.32"/>
  <circle class="cls-2" cx="442.69" cy="364.6" r="19.64"/>
</svg>